<?xml version="1.0" encoding="utf-8"?>
<!-- Generator: Adobe Illustrator 22.0.1, SVG Export Plug-In . SVG Version: 6.00 Build 0)  -->
<svg version="1.1" id="Layer_1" xmlns="http://www.w3.org/2000/svg" xmlns:xlink="http://www.w3.org/1999/xlink" x="0px" y="0px"
	 viewBox="0 0 23 23" style="enable-background:new 0 0 23 23;" xml:space="preserve">
<g>
	<g>
		<path style="fill:#38477E;" d="M11.5,18.5c-3.8,0-6.8-3.1-6.8-6.8c0-3.8,3.1-6.8,6.8-6.8c3.8,0,6.8,3.1,6.8,6.8
			C18.3,15.4,15.3,18.5,11.5,18.5z M11.5,5.9c-3.2,0-5.8,2.6-5.8,5.8c0,3.2,2.6,5.8,5.8,5.8c3.2,0,5.8-2.6,5.8-5.8
			C17.3,8.5,14.7,5.9,11.5,5.9z"/>
	</g>
	<g style="opacity:0.7;">
		<g>
			<path style="fill:#38477E;" d="M11.5,5.4c3.5,0,6.3,2.8,6.3,6.3S15,18,11.5,18V5.4z"/>
		</g>
	</g>
	<g>
		<rect x="0.5" y="11" style="fill:#38477E;" width="2.2" height="1"/>
	</g>
	<g>
		<rect x="20.3" y="11" style="fill:#38477E;" width="2.2" height="1"/>
	</g>
	<g>
		<rect x="11" y="0.5" style="fill:#38477E;" width="1" height="2.2"/>
	</g>
	<g>
		<rect x="11" y="20.3" style="fill:#38477E;" width="1" height="2.2"/>
	</g>
	<g>
		
			<rect x="4" y="3.4" transform="matrix(0.707 -0.7072 0.7072 0.707 -1.8701 4.516)" style="fill:#38477E;" width="1" height="2.2"/>
	</g>
	<g>
		
			<rect x="18" y="17.4" transform="matrix(0.7071 -0.7071 0.7071 0.7071 -7.6567 18.4849)" style="fill:#38477E;" width="1" height="2.2"/>
	</g>
	<g>
		
			<rect x="17.4" y="4" transform="matrix(0.7071 -0.7071 0.7071 0.7071 2.2216 14.3932)" style="fill:#38477E;" width="2.2" height="1"/>
	</g>
	<g>
		
			<rect x="3.4" y="18" transform="matrix(0.7071 -0.7071 0.7071 0.7071 -11.7483 8.6068)" style="fill:#38477E;" width="2.2" height="1"/>
	</g>
</g>
</svg>
