<?xml version="1.0" encoding="utf-8"?>
<!-- Generator: Adobe Illustrator 22.0.1, SVG Export Plug-In . SVG Version: 6.00 Build 0)  -->
<svg version="1.1" id="Layer_1" xmlns="http://www.w3.org/2000/svg" xmlns:xlink="http://www.w3.org/1999/xlink" x="0px" y="0px"
	 viewBox="0 0 38 19" style="enable-background:new 0 0 38 19;" xml:space="preserve">
<g>
	<g>
		<path style="fill:#38477E;" d="M37.6,18.4H0.4V0.6h37.1V18.4z M1.4,17.4h35.1V1.6H1.4V17.4z"/>
	</g>
	<g style="opacity:0.7;">
		<g>
			<rect x="4" y="3.5" style="fill:#38477E;" width="2.4" height="2.4"/>
		</g>
	</g>
	<g style="opacity:0.7;">
		<g>
			<rect x="8" y="3.5" style="fill:#38477E;" width="2.4" height="2.4"/>
		</g>
	</g>
	<g style="opacity:0.7;">
		<g>
			<rect x="12" y="3.5" style="fill:#38477E;" width="2.4" height="2.4"/>
		</g>
	</g>
	<g style="opacity:0.7;">
		<g>
			<rect x="16" y="3.5" style="fill:#38477E;" width="2.4" height="2.4"/>
		</g>
	</g>
	<g style="opacity:0.7;">
		<g>
			<rect x="20" y="3.5" style="fill:#38477E;" width="2.4" height="2.4"/>
		</g>
	</g>
	<g style="opacity:0.7;">
		<g>
			<rect x="24" y="3.5" style="fill:#38477E;" width="2.4" height="2.4"/>
		</g>
	</g>
	<g style="opacity:0.7;">
		<g>
			<rect x="28" y="3.5" style="fill:#38477E;" width="2.4" height="2.4"/>
		</g>
	</g>
	<g style="opacity:0.7;">
		<g>
			<rect x="32" y="3.5" style="fill:#38477E;" width="2.4" height="2.4"/>
		</g>
	</g>
	<g style="opacity:0.7;">
		<g>
			<rect x="4" y="8.4" style="fill:#38477E;" width="2.4" height="2.4"/>
		</g>
	</g>
	<g style="opacity:0.7;">
		<g>
			<rect x="8" y="8.4" style="fill:#38477E;" width="2.4" height="2.4"/>
		</g>
	</g>
	<g style="opacity:0.7;">
		<g>
			<rect x="12" y="8.4" style="fill:#38477E;" width="2.4" height="2.4"/>
		</g>
	</g>
	<g style="opacity:0.7;">
		<g>
			<rect x="16" y="8.4" style="fill:#38477E;" width="2.4" height="2.4"/>
		</g>
	</g>
	<g style="opacity:0.7;">
		<g>
			<rect x="20" y="8.4" style="fill:#38477E;" width="2.4" height="2.4"/>
		</g>
	</g>
	<g style="opacity:0.7;">
		<g>
			<rect x="24" y="8.4" style="fill:#38477E;" width="2.4" height="2.4"/>
		</g>
	</g>
	<g style="opacity:0.7;">
		<g>
			<rect x="28" y="8.4" style="fill:#38477E;" width="2.4" height="2.4"/>
		</g>
	</g>
	<g style="opacity:0.7;">
		<g>
			<rect x="32" y="8.4" style="fill:#38477E;" width="2.4" height="2.4"/>
		</g>
	</g>
	<g style="opacity:0.7;">
		<g>
			<rect x="4" y="13.2" style="fill:#38477E;" width="2.4" height="2.4"/>
		</g>
	</g>
	<g style="opacity:0.7;">
		<g>
			<rect x="8" y="13.2" style="fill:#38477E;" width="2.4" height="2.4"/>
		</g>
	</g>
	<g style="opacity:0.7;">
		<g>
			<rect x="32" y="13.2" style="fill:#38477E;" width="2.4" height="2.4"/>
		</g>
	</g>
	<g style="opacity:0.7;">
		<g>
			<rect x="12" y="13.2" style="fill:#38477E;" width="18.4" height="2.4"/>
		</g>
	</g>
</g>
</svg>
